<svg width="943" height="921" viewBox="0 0 943 921" fill="none" xmlns="http://www.w3.org/2000/svg">
<g filter="url(#filter0_f_16_1171)">
<path d="M896 602.174C896 686.742 594.715 630.199 510.148 630.199C425.58 630.199 759.936 482.037 759.936 397.469C759.936 312.902 664.809 340.201 749.376 340.201C833.943 340.201 896 517.607 896 602.174Z" fill="#58E1D9"/>
</g>
<g filter="url(#filter1_f_16_1171)">
<path d="M329 260.111C329 175.543 630.285 232.086 714.853 232.086C799.42 232.086 465.064 380.248 465.064 464.816C465.064 549.383 560.191 522.084 475.624 522.084C391.057 522.084 329 344.678 329 260.111Z" fill="#6293C0"/>
</g>
<path opacity="0.04" d="M723.608 350.543C959.766 434.638 602.892 687.28 567.205 520.767C549.451 437.894 383.099 489.164 388.114 403.657C393.129 318.15 468.029 325.513 542.385 283.631C634.99 231.014 661.081 328.279 723.608 350.543Z" stroke="white" stroke-width="1.23977" stroke-miterlimit="10"/>
<path opacity="0.07" d="M725.437 346.263C946.991 434.494 614.614 682.856 567.279 524.461C543.953 446.395 380.291 479.807 390.271 397.161C400.189 314.546 473.044 315.312 545.794 280.727C636.558 237.599 665.085 322.227 725.437 346.263Z" stroke="#FEFFFF" stroke-width="1.23977" stroke-miterlimit="10"/>
<path opacity="0.11" d="M727.266 341.977C934.165 433.919 626.541 678.617 567.335 528.161C538.554 454.998 377.47 470.48 392.478 390.69C407.318 310.978 478.022 304.967 549.259 277.824C637.984 244.029 669.034 316.102 727.266 341.977Z" stroke="#FEFEFF" stroke-width="1.23977" stroke-miterlimit="10"/>
<path opacity="0.15" d="M729.094 337.696C921.321 432.884 638.715 674.51 567.428 531.921C533.297 463.673 374.644 461.158 394.654 384.218C414.447 307.386 482.876 294.622 552.681 274.92C639.366 250.465 672.939 309.882 729.094 337.696Z" stroke="#FDFEFF" stroke-width="1.23977" stroke-miterlimit="10"/>
<path opacity="0.19" d="M730.923 333.416C908.52 431.315 651.193 670.463 567.503 535.65C528.196 472.33 371.829 451.837 396.836 377.747C421.575 303.8 487.723 284.295 556.14 272.017C640.705 256.882 676.782 303.566 730.923 333.416Z" stroke="#FDFEFF" stroke-width="1.23977" stroke-miterlimit="10"/>
<path opacity="0.23" d="M732.752 329.129C895.782 429.208 664 666.434 567.577 539.38C523.261 480.986 369.003 442.51 399.011 371.275C428.704 300.208 492.552 273.878 559.58 269.113C641.988 263.258 680.619 297.131 732.752 329.129Z" stroke="#FCFEFF" stroke-width="1.23977" stroke-miterlimit="10"/>
<path opacity="0.26" d="M734.587 324.849C883.254 426.538 677.129 662.28 567.651 543.11C518.482 489.583 366.188 433.183 401.193 364.803C435.833 296.622 497.319 263.45 563.021 266.216C643.24 269.586 684.456 290.557 734.587 324.849Z" stroke="#FCFEFF" stroke-width="1.23977" stroke-miterlimit="10"/>
<path opacity="0.3" d="M736.415 320.562C870.931 423.305 690.544 657.921 567.726 546.857C513.833 498.108 363.362 423.874 403.375 358.35C442.961 293.03 502.086 252.967 566.461 263.342C644.48 275.842 688.331 283.84 736.415 320.562Z" stroke="#FCFEFF" stroke-width="1.23977" stroke-miterlimit="10"/>
<path opacity="0.34" d="M738.244 316.282C858.911 419.527 704.15 653.288 567.775 550.563C509.289 506.483 360.516 414.535 405.551 351.86C450.09 289.444 506.859 242.431 569.902 260.409C645.726 282.032 692.286 276.956 738.244 316.282Z" stroke="#FBFDFF" stroke-width="1.23977" stroke-miterlimit="10"/>
<path opacity="0.38" d="M740.073 311.995C847.313 415.259 717.936 648.349 567.875 554.293C504.77 514.745 357.733 405.225 407.733 345.389C457.219 285.852 511.663 231.84 573.342 257.505C647.009 288.163 696.364 269.927 740.073 311.995Z" stroke="#FBFDFF" stroke-width="1.23977" stroke-miterlimit="10"/>
<path opacity="0.41" d="M741.901 307.715C836.124 410.577 731.754 643.092 567.949 558.022C500.282 522.887 354.894 395.88 409.909 338.911C464.341 282.26 516.529 221.208 576.782 254.596C648.336 294.245 700.648 262.677 741.901 307.715Z" stroke="#FAFDFF" stroke-width="1.23977" stroke-miterlimit="10"/>
<path opacity="0.45" d="M743.73 303.452C825.474 405.614 745.552 637.561 568.023 561.776C495.769 530.933 352.074 386.583 412.091 332.488C471.476 278.674 521.408 210.564 580.223 251.698C649.724 300.309 705.173 255.278 743.73 303.452Z" stroke="#FAFDFF" stroke-width="1.23977" stroke-miterlimit="10"/>
<path opacity="0.49" d="M745.559 299.148C815.414 400.436 759.277 631.73 568.098 565.482C491.232 538.841 349.278 377.232 414.273 325.974C478.599 275.088 526.348 199.914 583.663 248.8C651.169 306.374 710.089 247.723 745.559 299.148Z" stroke="#F9FDFF" stroke-width="1.23977" stroke-miterlimit="10"/>
<path opacity="0.53" d="M747.387 294.862C805.973 395.288 772.883 625.713 568.178 569.211C486.62 546.702 346.445 367.905 416.461 319.503C485.733 271.496 531.326 189.275 587.103 245.897C652.656 312.432 715.414 240.06 747.387 294.862Z" stroke="#F9FCFF" stroke-width="1.23977" stroke-miterlimit="10"/>
<path opacity="0.56" d="M749.216 290.581C797.152 390.331 786.378 619.547 568.24 572.941C481.934 554.502 343.612 358.583 418.631 313.031C492.856 267.91 536.335 178.649 590.544 242.987C654.181 318.539 721.228 232.349 749.216 290.581Z" stroke="#F8FCFF" stroke-width="1.23977" stroke-miterlimit="10"/>
<path opacity="0.6" d="M751.045 286.301C788.938 385.769 799.693 613.249 568.315 576.653C477.191 562.243 340.785 349.238 420.782 306.542C499.991 264.318 541.368 168.035 593.978 240.09C655.731 324.651 727.563 224.668 751.045 286.301Z" stroke="#F8FCFF" stroke-width="1.23977" stroke-miterlimit="10"/>
<path d="M627.266 584.986C458.291 916.772 246.098 324.406 469.654 331.248C581.605 334.673 543.488 82.3779 653.003 102.9C762.519 123.422 723.15 227.967 763.225 345.359C813.25 491.978 670.931 499.245 627.266 584.986Z" stroke="#FFFFFA" stroke-width="1.23977" stroke-miterlimit="10"/>
<g style="mix-blend-mode:hard-light" opacity="0.95">
<path d="M632.064 588.536C461.304 899.446 248.41 341.677 465.011 330.482C572.629 324.921 555.836 80.5998 660.411 107.438C764.986 134.276 734.797 237.234 765.86 350.849C805.123 492.463 677.142 506.459 632.064 588.536Z" stroke="#FFFFFA" stroke-width="1.23977" stroke-miterlimit="10"/>
</g>
<g style="mix-blend-mode:hard-light" opacity="0.9">
<path d="M636.855 592.086C464.75 882.085 250.338 359.128 460.368 329.722C563.48 315.282 568.178 78.8218 667.825 111.988C767.416 144.992 746.03 246.579 768.488 356.326C796.47 493.043 683.427 513.584 636.855 592.086Z" stroke="#FFFFFB" stroke-width="1.23977" stroke-miterlimit="10"/>
</g>
<g style="mix-blend-mode:hard-light" opacity="0.85">
<path d="M641.653 595.63C468.705 864.736 251.931 376.885 455.725 328.962C554.187 305.805 580.539 77.0438 675.233 116.532C769.864 155.78 757.467 255.847 771.123 361.81C788.095 493.522 689.812 520.708 641.653 595.63Z" stroke="#FFFFFB" stroke-width="1.23977" stroke-miterlimit="10"/>
</g>
<g style="mix-blend-mode:hard-light" opacity="0.8">
<path d="M646.451 599.192C473.168 847.428 253.276 395.048 451.082 328.195C544.796 296.538 592.887 75.2657 682.64 121.058C772.313 166.556 768.922 265.048 773.763 367.264C779.739 493.959 696.302 527.76 646.451 599.192Z" stroke="#FFFFFB" stroke-width="1.23977" stroke-miterlimit="10"/>
</g>
<g style="mix-blend-mode:hard-light" opacity="0.75">
<path d="M651.243 602.731C478.251 830.223 254.516 413.607 446.445 327.435C535.368 287.51 605.241 73.4877 690.048 125.649C774.761 177.386 780.409 274.286 776.386 372.784C771.42 494.354 702.917 534.776 651.243 602.731Z" stroke="#FFFFFC" stroke-width="1.23977" stroke-miterlimit="10"/>
</g>
<g style="mix-blend-mode:hard-light" opacity="0.7">
<path d="M656.041 606.281C483.992 813.185 255.743 432.668 441.802 326.705C525.964 278.722 617.589 71.7097 697.455 130.175C777.21 188.162 791.932 283.433 779.02 378.249C763.157 494.714 709.68 541.775 656.041 606.281Z" stroke="#FFFFFC" stroke-width="1.23977" stroke-miterlimit="10"/>
</g>
<g style="mix-blend-mode:hard-light" opacity="0.65">
<path d="M660.833 609.831C490.414 796.392 257.182 452.196 437.159 325.908C516.641 270.137 629.944 69.9317 704.869 134.725C779.652 198.956 803.506 292.587 781.648 383.727C754.956 495.055 716.598 548.785 660.833 609.831Z" stroke="#FFFFFC" stroke-width="1.23977" stroke-miterlimit="10"/>
</g>
<g style="mix-blend-mode:hard-light" opacity="0.6">
<path d="M665.631 613.381C497.549 779.935 258.923 472.096 432.516 325.148C507.46 261.69 642.286 68.1537 712.277 139.275C782.101 209.744 815.141 301.728 784.283 389.211C746.829 495.39 723.695 555.843 665.631 613.381Z" stroke="#FFFFFD" stroke-width="1.23977" stroke-miterlimit="10"/>
</g>
<g style="mix-blend-mode:hard-light" opacity="0.55">
<path d="M670.459 616.931C505.384 763.903 261.043 492.229 427.873 324.406C498.429 253.398 654.64 66.3816 719.685 143.819C784.549 220.538 826.838 310.894 786.917 394.689C738.771 495.743 730.997 562.997 670.459 616.931Z" stroke="#FFFFFD" stroke-width="1.23977" stroke-miterlimit="10"/>
</g>
<g style="mix-blend-mode:hard-light" opacity="0.5">
<path d="M675.22 620.481C513.876 748.403 263.56 512.542 423.23 323.621C489.558 245.143 666.988 64.5856 727.092 148.399C786.998 231.331 838.585 320.083 789.546 400.173C730.787 496.138 738.504 570.307 675.22 620.481Z" stroke="#FFFFFD" stroke-width="1.23977" stroke-miterlimit="10"/>
</g>
<g style="mix-blend-mode:hard-light" opacity="0.45">
<path d="M680.018 624.031C522.927 733.551 266.467 532.92 418.587 322.861C480.843 236.893 679.336 62.8195 734.506 152.918C789.447 242.119 850.375 329.321 792.155 405.65C722.846 496.587 746.234 577.862 680.018 624.031Z" stroke="#FFFFFD" stroke-width="1.23977" stroke-miterlimit="10"/>
</g>
<g style="mix-blend-mode:hard-light" opacity="0.4">
<path d="M684.81 627.581C532.46 719.434 269.716 553.293 413.92 322.101C472.257 228.619 691.684 61.0415 741.914 157.462C791.895 252.919 862.172 338.618 794.815 411.128C714.93 497.096 754.175 585.758 684.81 627.581Z" stroke="#FFFFFE" stroke-width="1.23977" stroke-miterlimit="10"/>
</g>
<g style="mix-blend-mode:hard-light" opacity="0.35">
<path d="M689.608 631.131C542.224 706.15 273.261 573.594 409.302 321.335C463.783 220.322 704.039 59.2635 749.321 162.012C794.344 263.713 874.018 347.963 797.443 416.6C707.033 497.671 762.302 594.128 689.608 631.131Z" stroke="#FFFFFE" stroke-width="1.23977" stroke-miterlimit="10"/>
</g>
<g style="mix-blend-mode:hard-light" opacity="0.3">
<path d="M694.406 634.681C551.974 693.781 277.043 593.804 404.659 320.574C455.39 211.965 716.387 57.4854 756.754 166.562C796.817 274.501 885.857 357.362 800.102 422.09C699.104 498.306 770.559 603.096 694.406 634.681Z" stroke="#FFFFFE" stroke-width="1.23977" stroke-miterlimit="10"/>
</g>
<g style="mix-blend-mode:hard-light" opacity="0.25">
<path d="M699.197 638.231C561.359 682.263 281.004 613.884 400.016 319.814C447.071 203.547 728.729 55.7134 764.137 171.106C799.241 285.295 897.635 366.797 802.706 427.574C691.17 498.982 778.828 612.788 699.197 638.231Z" stroke="white" stroke-width="1.23977" stroke-miterlimit="10"/>
</g>
<g style="mix-blend-mode:hard-light" opacity="0.2">
<path d="M703.995 641.781C570.069 671.631 285.107 633.843 395.373 319.048C438.802 195.094 741.083 53.9353 771.55 175.656C801.689 296.089 909.413 376.262 805.34 433.081C683.204 499.7 786.998 623.283 703.995 641.781Z" stroke="white" stroke-width="1.23977" stroke-miterlimit="10"/>
</g>
<path opacity="0.2" d="M439.341 497.689C47.6477 465.81 523.838 -8.65492 614.341 225.465C659.661 342.707 885.176 194.669 913.046 316.743C940.916 438.816 823.509 443.151 728.264 535.135C609.326 649.971 540.556 505.927 439.341 497.689Z" stroke="white" stroke-width="1.23977" stroke-miterlimit="10"/>
<path opacity="0.21" d="M438.002 504.178C65.9529 461.5 508.328 1.30085 613.058 220.34C665.128 329.297 892.242 206.672 911.899 326.363C931.555 446.054 819.666 459.177 724.154 540.2C605.334 641.769 536.434 515.463 438.002 504.178Z" stroke="white" stroke-width="1.27696" stroke-miterlimit="10"/>
<path opacity="0.23" d="M436.694 510.668C84.4937 457.686 492.552 10.9932 611.775 215.209C670.484 315.785 899.309 218.676 910.752 335.984C922.331 453.178 815.513 474.832 720.05 545.277C600.97 633.113 532.423 525.066 436.694 510.668Z" stroke="white" stroke-width="1.32036" stroke-miterlimit="10"/>
<path opacity="0.24" d="M435.368 517.175C103.264 454.418 476.367 20.488 610.492 210.061C675.629 302.141 906.376 230.667 909.605 345.586C913.039 460.338 811.607 490.631 715.922 550.329C596.86 624.66 528.506 534.746 435.368 517.175Z" stroke="white" stroke-width="1.35755" stroke-miterlimit="10"/>
<path opacity="0.25" d="M434.047 523.641C122.177 451.783 459.766 29.863 609.209 204.954C680.545 288.528 913.442 242.67 908.458 355.219C903.747 467.528 807.727 506.459 711.806 555.436C592.813 616.2 524.718 544.528 434.047 523.641Z" stroke="white" stroke-width="1.39474" stroke-miterlimit="10"/>
<path opacity="0.26" d="M432.721 530.125C141.238 449.85 442.689 39.2681 607.919 199.824C685.219 274.932 920.515 254.691 907.324 364.845C894.468 474.712 803.908 522.294 707.721 560.525C588.833 607.759 521.005 554.442 432.721 530.125Z" stroke="#FFFEFF" stroke-width="1.43194" stroke-miterlimit="10"/>
<path opacity="0.28" d="M431.4 536.614C160.374 448.694 425.146 48.8168 606.611 194.693C689.676 261.426 927.582 266.7 906.165 374.46C885.163 481.89 800.127 538.129 703.574 565.607C584.915 599.354 517.348 564.5 431.4 536.614Z" stroke="#FFFEFF" stroke-width="1.47533" stroke-miterlimit="10"/>
<path opacity="0.29" d="M430.074 543.104C179.51 448.365 407.188 58.6588 605.371 189.563C693.928 248.064 934.667 278.704 905.037 384.08C875.902 489.068 796.426 554.041 699.482 570.684C581.078 591.009 513.771 574.743 430.074 543.104Z" stroke="#FFFEFF" stroke-width="1.51252" stroke-miterlimit="10"/>
<path opacity="0.3" d="M428.754 549.587C198.497 448.928 388.913 68.896 604.07 184.438C698.013 234.887 941.715 290.707 903.871 393.701C866.579 496.222 792.726 570.014 695.348 575.767C577.272 582.747 510.188 585.202 428.754 549.587Z" stroke="#FFFEFF" stroke-width="1.54971" stroke-miterlimit="10"/>
<path opacity="0.31" d="M427.427 556.089C217.279 450.299 370.435 79.6001 602.787 179.308C702.036 221.902 948.788 302.716 902.724 403.322C857.287 503.406 789.05 586.058 691.232 580.849C573.472 574.581 506.555 595.906 427.427 556.089Z" stroke="#FFFEFF" stroke-width="1.58691" stroke-miterlimit="10"/>
<path opacity="0.33" d="M426.107 562.56C235.715 452.52 351.919 90.7831 601.497 174.177C706.041 209.109 955.849 314.719 901.578 412.942C847.995 510.59 785.355 602.186 687.116 585.932C569.654 566.505 502.811 606.891 426.107 562.56Z" stroke="#FFFEFF" stroke-width="1.6303" stroke-miterlimit="10"/>
<path opacity="0.34" d="M424.78 569.05C253.654 455.513 333.446 102.415 600.214 169.052C710.083 196.489 962.922 326.723 900.437 422.587C838.703 517.774 781.617 618.35 683 591.015C565.785 558.483 498.869 618.194 424.78 569.05Z" stroke="#FFFEFF" stroke-width="1.66749" stroke-miterlimit="10"/>
<path opacity="0.35" d="M423.46 575.539C270.968 459.177 315.11 114.436 598.931 163.922C714.192 184.013 969.988 338.732 899.29 432.177C829.411 524.97 777.793 634.591 678.884 596.091C561.849 550.551 494.616 629.832 423.46 575.539Z" stroke="#FFFEFF" stroke-width="1.70469" stroke-miterlimit="10"/>
<path opacity="0.36" d="M422.133 582.023C287.5 463.296 296.966 126.775 597.648 158.791C718.389 171.651 977.055 350.747 898.144 441.798C820.119 532.142 773.98 650.845 674.799 601.174C557.839 542.625 489.924 641.805 422.133 582.023Z" stroke="#FFFDFF" stroke-width="1.74188" stroke-miterlimit="10"/>
<path opacity="0.38" d="M420.813 588.512C303.134 467.63 279.051 139.341 596.364 153.661C722.691 159.366 984.122 362.738 897.009 451.418C810.826 539.326 770.057 667.105 670.658 606.257C553.766 534.704 484.661 654.096 420.813 588.512Z" stroke="#FFFDFF" stroke-width="1.78527" stroke-miterlimit="10"/>
<path opacity="0.39" d="M419.486 595.002C317.775 471.928 261.335 152.074 595.075 148.536C727.111 147.135 991.182 374.747 895.85 461.039C801.534 546.51 766.095 683.353 666.542 611.339C549.631 526.754 478.698 666.638 419.486 595.002Z" stroke="#FFFDFF" stroke-width="1.82246" stroke-miterlimit="10"/>
<path opacity="0.4" d="M418.166 601.485C331.382 475.868 243.897 164.91 593.792 143.406C731.599 134.935 998.261 386.751 894.703 470.659C792.242 553.694 762.097 699.582 662.401 616.422C545.447 518.816 471.941 679.318 418.166 601.485Z" stroke="#FFFDFF" stroke-width="1.85966" stroke-miterlimit="10"/>
<defs>
<filter id="filter0_f_16_1171" x="225.124" y="64.6839" width="942.191" height="855.339" filterUnits="userSpaceOnUse" color-interpolation-filters="sRGB">
<feFlood flood-opacity="0" result="BackgroundImageFix"/>
<feBlend mode="normal" in="SourceGraphic" in2="BackgroundImageFix" result="shape"/>
<feGaussianBlur stdDeviation="135.658" result="effect1_foregroundBlur_16_1171"/>
</filter>
<filter id="filter1_f_16_1171" x="0.822418" y="-114.601" width="1055.92" height="969.064" filterUnits="userSpaceOnUse" color-interpolation-filters="sRGB">
<feFlood flood-opacity="0" result="BackgroundImageFix"/>
<feBlend mode="normal" in="SourceGraphic" in2="BackgroundImageFix" result="shape"/>
<feGaussianBlur stdDeviation="164.089" result="effect1_foregroundBlur_16_1171"/>
</filter>
</defs>
</svg>
