<svg width="595" height="550" viewBox="0 0 595 550" fill="none" xmlns="http://www.w3.org/2000/svg">
<path opacity="0.04" d="M410.701 234.212C632.309 313.125 297.423 550.201 263.935 393.948C247.275 316.181 91.172 364.292 95.8779 284.053C100.584 203.814 170.87 210.724 240.644 171.422C327.543 122.047 352.026 213.319 410.701 234.212Z" stroke="white" stroke-width="1.16339" stroke-miterlimit="10"/>
<path opacity="0.07" d="M412.418 230.195C620.32 312.99 308.423 546.049 264.005 397.414C242.115 324.158 88.5369 355.511 97.9022 277.958C107.209 200.432 175.576 201.151 243.843 168.697C329.014 128.227 355.784 207.64 412.418 230.195Z" stroke="#FEFFFF" stroke-width="1.16339" stroke-miterlimit="10"/>
<path opacity="0.11" d="M414.134 226.173C608.285 312.451 319.614 542.072 264.057 400.886C237.049 332.231 85.8902 346.759 99.973 271.885C113.899 197.084 180.247 191.444 247.095 165.973C330.352 134.261 359.489 201.893 414.134 226.173Z" stroke="#FEFEFF" stroke-width="1.16339" stroke-miterlimit="10"/>
<path opacity="0.15" d="M415.85 222.156C596.232 311.479 331.039 538.218 264.144 404.414C232.116 340.371 83.2377 338.012 102.015 265.812C120.588 193.713 184.801 181.736 250.306 163.248C331.65 140.3 363.154 196.056 415.85 222.156Z" stroke="#FDFEFF" stroke-width="1.16339" stroke-miterlimit="10"/>
<path opacity="0.19" d="M417.566 218.14C584.22 310.007 342.748 534.421 264.214 407.914C227.329 348.495 80.5969 329.265 104.062 259.739C127.278 190.348 189.35 172.046 253.552 160.524C332.906 146.322 366.761 190.129 417.566 218.14Z" stroke="#FDFEFF" stroke-width="1.16339" stroke-miterlimit="10"/>
<path opacity="0.23" d="M419.281 214.117C572.267 308.03 354.766 530.64 264.284 411.414C222.699 356.618 77.9443 320.512 106.104 253.666C133.967 186.978 193.881 162.271 256.78 157.799C334.11 152.305 370.361 184.09 419.281 214.117Z" stroke="#FCFEFF" stroke-width="1.16339" stroke-miterlimit="10"/>
<path opacity="0.26" d="M421.003 210.1C560.511 305.524 367.086 526.741 264.353 414.914C218.214 364.685 75.3034 311.76 108.152 247.594C140.657 183.613 198.355 152.485 260.008 155.08C335.285 158.243 373.962 177.922 421.003 210.1Z" stroke="#FCFEFF" stroke-width="1.16339" stroke-miterlimit="10"/>
<path opacity="0.3" d="M422.719 206.078C548.947 302.491 379.674 522.651 264.423 418.43C213.851 372.685 72.6509 303.024 110.199 241.538C147.346 180.242 202.828 142.648 263.237 152.383C336.448 164.113 377.597 171.619 422.719 206.078Z" stroke="#FCFEFF" stroke-width="1.16339" stroke-miterlimit="10"/>
<path opacity="0.34" d="M424.435 202.061C537.668 298.946 392.442 518.303 264.47 421.908C209.587 380.544 69.9809 294.26 112.241 235.448C154.036 176.877 207.307 132.761 266.465 149.631C337.618 169.922 381.309 165.158 424.435 202.061Z" stroke="#FBFDFF" stroke-width="1.16339" stroke-miterlimit="10"/>
<path opacity="0.38" d="M426.151 198.039C526.784 294.94 405.379 513.669 264.563 425.408C205.347 388.297 67.3692 285.525 114.288 229.375C160.725 173.506 211.815 122.823 269.693 146.906C338.822 175.675 385.136 158.563 426.151 198.039Z" stroke="#FBFDFF" stroke-width="1.16339" stroke-miterlimit="10"/>
<path opacity="0.41" d="M427.867 194.022C516.285 290.547 418.345 508.736 264.633 428.907C201.135 395.937 64.705 276.756 116.33 223.297C167.409 170.136 216.381 112.846 272.922 144.176C340.067 181.382 389.156 151.76 427.867 194.022Z" stroke="#FAFDFF" stroke-width="1.16339" stroke-miterlimit="10"/>
<path opacity="0.45" d="M429.583 190.023C506.291 285.89 431.293 503.545 264.703 432.43C196.9 403.487 62.0583 268.031 118.378 217.269C174.104 166.771 220.959 102.857 276.15 141.457C341.37 187.073 393.402 144.816 429.583 190.023Z" stroke="#FAFDFF" stroke-width="1.16339" stroke-miterlimit="10"/>
<path opacity="0.49" d="M431.299 185.983C496.85 281.031 444.172 498.074 264.772 435.907C192.642 410.908 59.4349 259.256 120.425 211.157C180.788 163.406 225.595 92.863 279.379 138.738C342.725 192.764 398.015 137.727 431.299 185.983Z" stroke="#F9FDFF" stroke-width="1.16339" stroke-miterlimit="10"/>
<path opacity="0.53" d="M433.015 181.961C487.991 276.199 456.94 492.428 264.848 439.407C188.315 418.284 56.7765 250.504 122.479 205.084C187.483 160.035 230.266 82.8803 282.607 136.013C344.121 198.449 403.012 130.536 433.015 181.961Z" stroke="#F9FCFF" stroke-width="1.16339" stroke-miterlimit="10"/>
<path opacity="0.56" d="M434.731 177.944C479.714 271.548 469.604 486.641 264.906 442.907C183.917 425.604 54.1182 241.757 124.515 199.011C194.166 156.67 234.966 72.9087 285.835 133.283C345.552 204.179 408.468 123.3 434.731 177.944Z" stroke="#F8FCFF" stroke-width="1.16339" stroke-miterlimit="10"/>
<path opacity="0.6" d="M436.447 173.928C472.006 267.267 482.098 480.731 264.976 446.39C179.467 432.868 51.4656 232.987 126.533 192.921C200.862 153.299 239.69 62.9483 289.058 130.564C347.006 209.915 414.413 116.093 436.447 173.928Z" stroke="#F8FCFF" stroke-width="1.16339" stroke-miterlimit="10"/>
<path d="M320.295 454.21C161.731 765.553 -37.3879 209.685 172.394 216.106C277.447 219.319 241.679 -17.4309 344.447 1.82688C447.214 21.0846 410.271 119.188 447.878 229.347C494.82 366.932 361.269 373.752 320.295 454.21Z" stroke="#FFFFFA" stroke-width="1.16339" stroke-miterlimit="10"/>
<g style="mix-blend-mode:hard-light" opacity="0.95">
<path d="M324.797 457.541C164.558 749.295 -35.2181 225.892 168.037 215.387C269.025 210.168 253.266 -19.0994 351.398 6.08515C449.53 31.2697 421.201 127.884 450.35 234.498C487.194 367.387 367.098 380.521 324.797 457.541Z" stroke="#FFFFFA" stroke-width="1.16339" stroke-miterlimit="10"/>
</g>
<g style="mix-blend-mode:hard-light" opacity="0.9">
<path d="M329.294 460.873C167.793 733.004 -33.4091 242.268 163.68 214.673C260.439 201.123 264.848 -20.7678 358.355 10.3547C451.81 41.3255 431.741 136.654 452.816 239.639C479.074 367.932 372.996 387.207 329.294 460.873Z" stroke="#FFFFFB" stroke-width="1.16339" stroke-miterlimit="10"/>
</g>
<g style="mix-blend-mode:hard-light" opacity="0.85">
<path d="M333.796 464.198C171.504 716.723 -31.9142 258.93 159.323 213.96C251.719 192.23 276.447 -22.4363 365.306 14.6186C454.107 51.4487 442.474 145.35 455.288 244.785C471.215 368.382 378.988 393.892 333.796 464.198Z" stroke="#FFFFFB" stroke-width="1.16339" stroke-miterlimit="10"/>
</g>
<g style="mix-blend-mode:hard-light" opacity="0.8">
<path d="M338.298 467.541C175.692 700.482 -30.6519 275.975 154.966 213.241C242.906 183.534 288.034 -24.1048 372.257 18.8656C456.405 61.5608 453.223 153.985 457.766 249.903C463.374 368.792 385.078 400.51 338.298 467.541Z" stroke="#FFFFFB" stroke-width="1.16339" stroke-miterlimit="10"/>
</g>
<g style="mix-blend-mode:hard-light" opacity="0.75">
<path d="M342.795 470.861C180.462 684.337 -29.4885 293.39 150.615 212.527C234.059 175.062 299.627 -25.7732 379.209 23.1745C458.703 71.7234 464.002 162.653 460.227 255.082C455.567 369.162 391.285 407.094 342.795 470.861Z" stroke="#FFFFFC" stroke-width="1.16339" stroke-miterlimit="10"/>
</g>
<g style="mix-blend-mode:hard-light" opacity="0.7">
<path d="M347.297 474.192C185.848 668.348 -28.3367 311.277 146.258 211.842C225.235 166.815 311.215 -27.4417 386.16 27.4215C461 81.8353 474.816 171.237 462.699 260.211C447.813 369.499 397.631 413.661 347.297 474.192Z" stroke="#FFFFFC" stroke-width="1.16339" stroke-miterlimit="10"/>
</g>
<g style="mix-blend-mode:hard-light" opacity="0.65">
<path d="M351.794 477.524C191.875 652.591 -26.9872 329.602 141.901 211.095C216.486 158.76 322.808 -29.1102 393.117 31.691C463.292 91.9642 485.676 179.826 465.165 265.351C440.118 369.82 404.123 420.239 351.794 477.524Z" stroke="#FFFFFC" stroke-width="1.16339" stroke-miterlimit="10"/>
</g>
<g style="mix-blend-mode:hard-light" opacity="0.6">
<path d="M356.296 480.855C198.57 637.147 -25.3526 348.276 137.545 210.381C207.871 150.833 334.389 -30.7787 400.068 35.9606C465.59 102.087 496.594 188.405 467.638 270.497C432.492 370.134 410.783 426.863 356.296 480.855Z" stroke="#FFFFFD" stroke-width="1.16339" stroke-miterlimit="10"/>
</g>
<g style="mix-blend-mode:hard-light" opacity="0.55">
<path d="M360.827 484.186C205.922 622.103 -23.3633 367.168 133.188 209.685C199.396 143.052 345.982 -32.4416 407.019 40.2244C467.888 112.216 507.571 197.005 470.11 275.638C424.93 370.466 417.635 433.576 360.827 484.186Z" stroke="#FFFFFD" stroke-width="1.16339" stroke-miterlimit="10"/>
</g>
<g style="mix-blend-mode:hard-light" opacity="0.5">
<path d="M365.295 487.518C213.892 607.558 -21.0016 386.229 128.831 208.949C191.072 135.305 357.57 -34.1269 413.971 44.522C470.185 122.345 518.594 205.629 472.576 280.783C417.437 370.836 424.68 440.435 365.295 487.518Z" stroke="#FFFFFD" stroke-width="1.16339" stroke-miterlimit="10"/>
</g>
<g style="mix-blend-mode:hard-light" opacity="0.45">
<path d="M369.797 490.849C222.384 593.621 -18.2734 405.352 124.474 208.235C182.893 127.564 369.157 -35.7841 420.928 48.7635C472.483 132.468 529.658 214.297 475.025 285.924C409.986 371.258 431.933 447.525 369.797 490.849Z" stroke="#FFFFFD" stroke-width="1.16339" stroke-miterlimit="10"/>
</g>
<g style="mix-blend-mode:hard-light" opacity="0.4">
<path d="M374.293 494.18C231.331 580.374 -15.2254 424.469 120.094 207.522C174.837 119.8 380.744 -37.4527 427.879 53.0273C474.781 142.603 540.727 223.021 477.521 291.064C402.558 371.735 439.385 454.935 374.293 494.18Z" stroke="#FFFFFE" stroke-width="1.16339" stroke-miterlimit="10"/>
</g>
<g style="mix-blend-mode:hard-light" opacity="0.35">
<path d="M378.796 497.512C240.492 567.908 -11.8981 443.519 115.76 206.803C166.885 112.014 392.337 -39.1211 434.83 57.2969C477.078 152.732 551.843 231.791 479.987 296.199C395.147 372.275 447.011 462.788 378.796 497.512Z" stroke="#FFFFFE" stroke-width="1.16339" stroke-miterlimit="10"/>
</g>
<g style="mix-blend-mode:hard-light" opacity="0.3">
<path d="M383.298 500.843C249.642 556.302 -8.34979 462.485 111.403 206.089C159.009 104.172 403.925 -40.7896 441.805 61.5664C479.399 162.855 562.954 240.611 482.482 301.35C387.707 372.87 454.759 471.204 383.298 500.843Z" stroke="#FFFFFE" stroke-width="1.16339" stroke-miterlimit="10"/>
</g>
<g style="mix-blend-mode:hard-light" opacity="0.25">
<path d="M387.794 504.175C258.449 545.493 -4.63276 481.327 107.046 205.376C151.203 96.273 415.506 -42.4524 448.733 65.8303C481.674 172.984 574.006 249.464 484.926 306.496C380.262 373.505 462.519 480.299 387.794 504.175Z" stroke="white" stroke-width="1.16339" stroke-miterlimit="10"/>
</g>
<g style="mix-blend-mode:hard-light" opacity="0.2">
<path d="M392.297 507.506C266.622 535.516 -0.781938 500.057 102.69 204.657C143.443 88.3407 427.099 -44.1209 455.69 70.0998C483.972 183.113 585.058 258.346 487.398 311.664C372.787 374.179 470.185 490.147 392.297 507.506Z" stroke="white" stroke-width="1.16339" stroke-miterlimit="10"/>
</g>
<path opacity="0.2" d="M143.949 372.291C-223.611 342.377 223.239 -102.855 308.167 116.84C350.694 226.858 562.314 87.9419 588.467 202.494C614.62 317.046 504.447 321.113 415.07 407.431C303.461 515.191 238.928 380.022 143.949 372.291Z" stroke="white" stroke-width="1.16339" stroke-miterlimit="10"/>
<path opacity="0.21" d="M142.693 378.381C-206.434 338.332 208.686 -93.5124 306.963 112.031C355.825 214.275 568.945 99.2055 587.391 211.522C605.836 323.838 500.841 336.152 411.213 412.183C299.715 507.495 235.059 388.971 142.693 378.381Z" stroke="white" stroke-width="1.19829" stroke-miterlimit="10"/>
<path opacity="0.23" d="M141.465 384.471C-189.035 334.753 193.881 -84.4172 305.758 107.216C360.85 201.595 575.576 110.469 586.315 220.55C597.181 330.523 496.943 350.843 407.363 416.947C295.619 499.371 231.296 397.982 141.465 384.471Z" stroke="white" stroke-width="1.23901" stroke-miterlimit="10"/>
<path opacity="0.24" d="M140.22 390.577C-171.421 331.686 178.693 -75.5075 304.554 102.385C365.679 188.792 582.208 121.722 585.238 229.561C588.461 337.242 493.279 365.668 403.489 421.689C291.763 491.439 227.62 407.066 140.22 390.577Z" stroke="white" stroke-width="1.27391" stroke-miterlimit="10"/>
<path opacity="0.25" d="M138.981 396.644C-153.674 329.214 163.116 -66.71 303.35 97.5932C370.291 176.017 588.839 132.985 584.162 238.599C579.741 343.989 489.637 380.521 399.626 426.481C287.964 483.501 224.065 416.245 138.981 396.644Z" stroke="white" stroke-width="1.30881" stroke-miterlimit="10"/>
<path opacity="0.26" d="M137.737 402.729C-135.787 327.4 147.09 -57.8845 302.14 92.7788C374.677 163.259 595.476 144.266 583.098 247.633C571.033 350.73 486.054 395.381 395.793 431.256C284.23 475.58 220.581 425.548 137.737 402.729Z" stroke="#FFFEFF" stroke-width="1.34371" stroke-miterlimit="10"/>
<path opacity="0.28" d="M136.498 408.818C-117.83 326.315 130.628 -48.9241 300.913 87.9643C378.86 150.586 602.107 155.535 582.01 256.655C562.302 357.466 482.506 410.24 391.901 436.025C280.554 467.693 217.149 434.986 136.498 408.818Z" stroke="#FFFEFF" stroke-width="1.38443" stroke-miterlimit="10"/>
<path opacity="0.29" d="M135.253 414.908C-99.8733 326.007 113.777 -39.6885 299.749 83.1499C382.85 138.047 608.756 166.799 580.951 265.683C553.612 364.202 479.033 425.172 388.062 440.789C276.953 459.861 213.793 444.598 135.253 414.908Z" stroke="#FFFEFF" stroke-width="1.41933" stroke-miterlimit="10"/>
<path opacity="0.3" d="M134.014 420.992C-82.056 326.535 96.6283 -30.0821 298.528 78.3411C386.683 125.682 615.37 178.062 579.858 274.711C544.863 370.915 475.56 440.16 384.182 445.559C273.381 452.109 210.431 454.412 134.014 420.992Z" stroke="#FFFEFF" stroke-width="1.45423" stroke-miterlimit="10"/>
<path opacity="0.31" d="M132.769 427.093C-64.4308 327.821 79.288 -20.0375 297.324 73.5267C390.459 113.497 622.007 189.332 578.782 283.738C536.144 377.656 472.111 455.216 380.32 450.328C269.816 444.446 207.022 464.457 132.769 427.093Z" stroke="#FFFEFF" stroke-width="1.48913" stroke-miterlimit="10"/>
<path opacity="0.33" d="M131.53 433.166C-47.1312 329.905 61.9129 -9.5435 296.114 68.7122C394.216 101.492 628.633 200.595 577.705 292.766C527.424 384.398 468.644 470.35 376.457 455.098C266.232 436.868 203.508 474.765 131.53 433.166Z" stroke="#FFFEFF" stroke-width="1.52985" stroke-miterlimit="10"/>
<path opacity="0.34" d="M130.285 439.255C-30.2971 332.714 44.5784 1.37186 294.91 63.9034C398.009 89.6497 635.27 211.859 576.635 301.816C518.704 391.139 465.136 485.518 372.595 459.867C262.603 429.34 199.809 485.372 130.285 439.255Z" stroke="#FFFEFF" stroke-width="1.56475" stroke-miterlimit="10"/>
<path opacity="0.35" d="M129.046 445.345C-14.0504 336.152 27.3719 12.6523 293.706 59.0889C401.866 77.9422 641.901 223.128 575.559 310.816C509.985 397.892 461.547 500.759 368.732 464.631C258.909 421.896 195.818 496.293 129.046 445.345Z" stroke="#FFFEFF" stroke-width="1.59965" stroke-miterlimit="10"/>
<path opacity="0.36" d="M127.801 451.429C1.46337 340.017 10.3458 24.2306 292.502 54.2745C405.804 66.3415 648.532 234.403 574.483 319.844C501.265 404.622 457.97 516.011 364.899 469.4C255.145 414.459 191.415 507.528 127.801 451.429Z" stroke="#FFFDFF" stroke-width="1.63456" stroke-miterlimit="10"/>
<path opacity="0.38" d="M126.562 457.519C16.1336 344.085 -6.46515 36.0223 291.297 49.4601C409.841 54.8138 655.164 245.655 573.418 328.872C492.546 411.363 454.288 531.269 361.013 474.17C251.324 407.026 186.476 519.062 126.562 457.519Z" stroke="#FFFDFF" stroke-width="1.67527" stroke-miterlimit="10"/>
<path opacity="0.39" d="M125.317 463.608C29.8733 348.118 -23.0898 47.9714 290.088 44.6512C413.988 43.3367 661.789 256.925 572.331 337.899C483.826 418.104 450.571 546.516 357.151 478.939C247.444 399.566 180.881 530.831 125.317 463.608Z" stroke="#FFFDFF" stroke-width="1.71018" stroke-miterlimit="10"/>
<path opacity="0.4" d="M124.078 469.693C42.6414 351.815 -39.4529 60.0159 288.883 39.8368C418.2 31.8877 668.432 268.188 571.254 346.927C475.107 424.846 446.819 561.746 353.265 483.709C243.517 392.117 174.54 542.729 124.078 469.693Z" stroke="#FFFDFF" stroke-width="1.74508" stroke-miterlimit="10"/>
</svg>
